# xmcd
#
# Track frame offsets:
#	150
#	15431
#	29677
#	46943
#	65955
#	84066
#	103182
#	120540
#	137611
#	153562
#	173522
#	188649
#	216828
#
# Disc length: 3850 seconds
#
# Revision: 1
# Processed by: cddbd v1.5.2PL0 Copyright (c) Steve Scherf et al.
# Submitted via: audiograbber 1.83.01
#
DISCID=a80f080d
DTITLE=Various Artist - ASK88-2
DYEAR=1900
DGENRE=Country
TTITLE0=Aldean, Jason - Laughed Until We Cried
TTITLE1=Pickler, Kellie - Things That Never Cross A Man's Mind
TTITLE2=Chesney, Kenny - Better As A Memory
TTITLE3=Lady Antebellum - Love Don't Live Here
TTITLE4=Vassar, Phil - Love Is A Beautiful Thing
TTITLE5=McEntire, Reba - Every Other Weekend
TTITLE6=Atkins, Rodney - Invisibly Shaken
TTITLE7=Clark, Terri - In My Next Life
TTITLE8=McGraw, Tim - Kristofferson
TTITLE9=McGraw, Tim - Suspicions
TTITLE10=Keith, Toby - She's A Hottie
TTITLE11=Adkins, Trace - You're Gonna Miss This
TTITLE12=Data Track - Data Track
EXTD=
EXTT0=
EXTT1=
EXTT2=
EXTT3=
EXTT4=
EXTT5=
EXTT6=
EXTT7=
EXTT8=
EXTT9=
EXTT10=
EXTT11=
EXTT12=
PLAYORDER=
